<svg xmlns="http://www.w3.org/2000/svg" width="482.9" height="482.89" viewBox="0 0 482.9 482.89">
  <path id="Caminho_20" data-name="Caminho 20" d="M482.9,241.45C482.9,108.314,374.585,0,241.45,0S0,108.314,0,241.45A240.028,240.028,0,0,0,40.547,375.2l-.016.169L42.2,377.8c1.449,2.117,3.01,4.121,4.523,6.181.612.837,1.215,1.682,1.843,2.519q2.874,3.814,5.891,7.493c.579.708,1.167,1.408,1.755,2.109a241.537,241.537,0,0,0,30.527,30.535c.668.555,1.328,1.119,2,1.674,2.4,1.956,4.821,3.871,7.292,5.73,1,.757,2.012,1.489,3.018,2.229,2.35,1.722,4.7,3.429,7.115,5.062,1.288.877,2.624,1.7,3.928,2.551,3.348,2.173,6.728,4.274,10.173,6.27,2.4,1.4,4.8,2.793,7.26,4.113,1.481.8,2.994,1.537,4.491,2.3,2.616,1.336,5.239,2.632,7.9,3.871q2.016.93,4.04,1.827,4.624,2.052,9.352,3.9c.974.386,1.94.781,2.922,1.159a239.136,239.136,0,0,0,26.576,8.338c.37.1.749.169,1.119.258q6.012,1.473,12.145,2.64c1.087.209,2.173.394,3.26.588q5.119.9,10.3,1.594c1.32.177,2.632.346,3.952.507,3.372.386,6.769.692,10.181.942,1.272.1,2.535.217,3.807.29,4.6.241,9.215.41,13.875.41s9.28-.169,13.875-.427c1.272-.072,2.535-.2,3.807-.29,3.412-.249,6.809-.547,10.181-.942,1.32-.153,2.64-.33,3.952-.507q5.191-.688,10.3-1.594c1.087-.193,2.173-.378,3.26-.588q6.133-1.171,12.145-2.64c.37-.089.749-.169,1.119-.258a239.136,239.136,0,0,0,26.576-8.338c.982-.37,1.956-.773,2.938-1.159q4.72-1.859,9.344-3.9,2.028-.9,4.04-1.827,4-1.859,7.9-3.871c1.5-.765,3.01-1.513,4.491-2.3,2.455-1.32,4.853-2.712,7.26-4.113q5.167-3.006,10.173-6.27c1.312-.853,2.64-1.674,3.928-2.551,2.406-1.634,4.757-3.34,7.115-5.062,1.006-.74,2.02-1.473,3.018-2.229q3.694-2.789,7.292-5.73c.676-.555,1.336-1.119,2-1.674a241.664,241.664,0,0,0,30.535-30.543c.588-.7,1.167-1.392,1.738-2.1,2-2.455,3.976-4.95,5.891-7.493.628-.829,1.223-1.674,1.843-2.519,1.505-2.06,3.074-4.064,4.523-6.181l1.666-2.439-.016-.169A239.981,239.981,0,0,0,482.9,241.45Zm-16.1,0a223.922,223.922,0,0,1-28.9,110.214,109.809,109.809,0,0,0-105.417-78.021H284.637a2.945,2.945,0,0,1-2.946-2.938v-5.191a3.21,3.21,0,0,1,2.221-2.833c51.823-19.485,84.145-100.314,77.369-156.846a120.2,120.2,0,0,0-39.3-74.809C406.578,63.517,466.8,145.562,466.8,241.45ZM422.84,374.972c-.652.877-1.3,1.746-1.964,2.616-1.8,2.358-3.606,4.7-5.489,6.986-.193.233-.394.459-.588.692a227.865,227.865,0,0,1-21.014,22.077c-.443.41-.885.829-1.336,1.231-2.229,2.02-4.515,3.984-6.825,5.916-.724.6-1.457,1.2-2.189,1.8-2.245,1.827-4.507,3.622-6.817,5.36-.781.588-1.586,1.143-2.374,1.722-1.328.974-2.672,1.915-4.016,2.857v-39.9h-16.1v50.165c-.314.185-.628.362-.95.547-2.052,1.175-4.1,2.342-6.181,3.445-1.425.757-2.873,1.489-4.322,2.221q-3.646,1.835-7.348,3.541c-1.207.555-2.406,1.111-3.622,1.642q-4.648,2.028-9.384,3.855c-.652.249-1.288.523-1.94.765a224.618,224.618,0,0,1-24.652,7.646c-.6.153-1.215.274-1.819.418-3.469.829-6.97,1.586-10.487,2.245-1.046.2-2.093.378-3.147.563q-4.684.821-9.417,1.433c-1.215.161-2.431.33-3.654.467-3.123.362-6.262.628-9.417.861-1.167.08-2.326.2-3.5.266-4.274.258-8.547.4-12.845.4s-8.571-.145-12.837-.386c-1.175-.064-2.334-.185-3.5-.266-3.147-.233-6.294-.5-9.417-.861-1.223-.137-2.439-.306-3.654-.467q-4.732-.628-9.417-1.433c-1.046-.185-2.1-.362-3.147-.563q-5.276-1-10.487-2.254c-.6-.145-1.207-.274-1.811-.418a226.522,226.522,0,0,1-24.66-7.646c-.652-.241-1.3-.515-1.94-.765q-4.732-1.823-9.376-3.855c-1.215-.531-2.423-1.087-3.63-1.642q-3.706-1.7-7.348-3.541c-1.449-.732-2.9-1.457-4.322-2.221-2.085-1.1-4.137-2.278-6.181-3.445-.314-.185-.636-.362-.95-.547V386.32h-16.1v39.9c-1.352-.942-2.7-1.891-4.016-2.857-.789-.579-1.594-1.135-2.374-1.722-2.31-1.738-4.571-3.533-6.809-5.352q-1.11-.9-2.205-1.8-3.465-2.885-6.817-5.908c-.451-.41-.9-.837-1.352-1.247A226.731,226.731,0,0,1,68.1,385.266c-.193-.233-.394-.459-.588-.692-1.883-2.286-3.694-4.628-5.489-6.986-.66-.869-1.32-1.738-1.964-2.616-.966-1.312-1.9-2.648-2.833-3.984a93.738,93.738,0,0,1,93.192-81.248h23.308l67.727,67.719,67.719-67.719H332.48a93.746,93.746,0,0,1,93.2,81.248c-.937,1.336-1.863,2.672-2.837,3.984ZM205.16,247.816c-38.487-14.238-68.338-80.008-68.338-127.091,0-1.03.121-2.036.145-3.058l5.891-7.268c13.288-15.807,35.968-20.33,56.435-11.268a64.39,64.39,0,0,0,82.624-28.177c25.61,8.411,48.467,24.266,63.928,44.25,2.358,49.1-26.511,116.966-67.59,132.411a19.115,19.115,0,0,0-12.66,17.9v5.191a19.067,19.067,0,0,0,19.034,19.034h1.779L241.45,334.7l-44.958-44.96h1.779A19.067,19.067,0,0,0,217.3,270.706V265.6a18.92,18.92,0,0,0-12.14-17.779Zm36.612-231.7h.266a106.744,106.744,0,0,1,11.509.668c39.911,4.447,73.453,32.23,86.535,69.124A155.375,155.375,0,0,0,279.744,53.5l-6.922-1.9-2.68,6.648A48.3,48.3,0,0,1,205.82,84.419c-22.262-9.851-46.568-7.187-64.523,5.875A104.761,104.761,0,0,1,241.772,16.113ZM160.822,31.07c-1.553,1.4-3.155,2.72-4.652,4.209a119.918,119.918,0,0,0-35.445,85.449c0,53.352,33.723,125.5,78.85,142.182a2.836,2.836,0,0,1,1.634,2.688v5.111a2.944,2.944,0,0,1-2.938,2.938H150.423A109.811,109.811,0,0,0,45,351.664,223.922,223.922,0,0,1,16.1,241.45c0-95.856,60.174-177.868,144.722-210.383Z" transform="translate(0)" fill="#008ef4"/>
</svg>
