<?xml version="1.0"?>
<svg xmlns="http://www.w3.org/2000/svg" xmlns:xlink="http://www.w3.org/1999/xlink" version="1.1" id="Layer_1" x="0px" y="0px" viewBox="0 0 512.006 512.006" style="enable-background:new 0 0 512.006 512.006;" xml:space="preserve" width="512px" height="512px"><g><g id="XMLID_1239_">
	<g id="XMLID_392_">
		<path id="XMLID_395_" d="M110.649,68.007h-0.891c3.954-6.403,6.242-13.938,6.242-22v-4c0-23.159-18.841-42-42-42s-42,18.841-42,42    v4c0,8.062,2.288,15.597,6.242,22h-0.891C16.756,68.007,0,84.762,0,105.357v27.935c0,5.523,4.478,10,10,10h128    c5.522,0,10-4.477,10-10v-27.935C148,84.762,131.244,68.007,110.649,68.007z M52,46.007v-4c0-12.131,9.869-22,22-22    s22,9.869,22,22v4c0,12.131-9.869,22-22,22S52,58.138,52,46.007z M128,123.292H20v-17.935c0-9.567,7.783-17.35,17.351-17.35    h73.299c9.567,0,17.351,7.783,17.351,17.35V123.292z" data-original="#000000" class="active-path" data-old_color="#000000" fill="#E28C1B"/>
		<path id="XMLID_399_" d="M263.863,51.521l-20.34-2.95l-9.101-18.428c-1.979-4.006-5.981-6.495-10.45-6.495    c-0.001,0-0.003,0-0.004,0c-4.47,0.001-8.475,2.493-10.449,6.5l-9.091,18.433l-20.336,2.96c-4.423,0.643-8.027,3.683-9.408,7.934    c-1.38,4.251-0.249,8.83,2.952,11.948l14.722,14.342l-3.47,20.258c-0.754,4.405,1.024,8.772,4.641,11.398    c2.042,1.483,4.432,2.237,6.837,2.236c1.854,0,3.716-0.447,5.437-1.353l18.189-9.568l18.194,9.559    c3.956,2.078,8.66,1.738,12.274-0.891c3.614-2.628,5.39-6.997,4.633-11.401l-3.479-20.255l14.711-14.348    c3.201-3.12,4.331-7.698,2.949-11.949S268.286,52.162,263.863,51.521z M238.506,74.497c-2.742,2.677-3.993,6.53-3.346,10.314    l1.359,7.915l-7.109-3.735c-3.396-1.784-7.454-1.782-10.847,0.003l-7.107,3.739l1.356-7.919c0.646-3.779-0.607-7.633-3.355-10.312    l-5.753-5.604l7.95-1.157c3.794-0.554,7.073-2.937,8.771-6.378l3.552-7.202l3.557,7.202c1.697,3.437,4.976,5.818,8.776,6.373    l7.948,1.153L238.506,74.497z" data-original="#000000" class="active-path" data-old_color="#000000" fill="#E28C1B"/>
		<path id="XMLID_402_" d="M382.939,51.521l-20.34-2.95l-9.101-18.428c-1.979-4.006-5.981-6.495-10.45-6.495    c-0.001,0-0.003,0-0.004,0c-4.47,0.001-8.475,2.493-10.449,6.5l-9.091,18.433l-20.334,2.96c-4.423,0.642-8.029,3.682-9.409,7.933    c-1.381,4.251-0.25,8.83,2.951,11.949l14.722,14.342l-3.468,20.25c-0.757,4.406,1.019,8.775,4.636,11.403    c2.043,1.484,4.434,2.239,6.84,2.239c1.854,0,3.716-0.447,5.437-1.353l18.189-9.568l18.194,9.559    c3.956,2.078,8.66,1.738,12.274-0.891c3.614-2.628,5.39-6.997,4.633-11.4l-3.479-20.256l14.71-14.347    c3.201-3.12,4.331-7.698,2.949-11.949S387.362,52.162,382.939,51.521z M357.592,74.489c-2.754,2.682-4.008,6.545-3.354,10.323    l1.359,7.916l-7.11-3.736c-3.402-1.786-7.459-1.783-10.846,0.003l-7.108,3.739l1.356-7.919c0.646-3.785-0.61-7.642-3.355-10.312    l-5.752-5.604l7.949-1.157c3.794-0.554,7.073-2.937,8.771-6.378l3.552-7.202l3.557,7.202c1.697,3.436,4.977,5.818,8.777,6.373    l7.947,1.153L357.592,74.489z" data-original="#000000" class="active-path" data-old_color="#000000" fill="#E28C1B"/>
		<path id="XMLID_1138_" d="M511.427,59.452c-1.382-4.251-4.989-7.29-9.411-7.931l-20.34-2.95l-9.101-18.428    c-1.978-4.006-5.982-6.495-10.45-6.495c-4.469,0-8.473,2.49-10.453,6.5l-9.091,18.433l-20.335,2.96    c-4.423,0.643-8.028,3.683-9.408,7.934c-1.381,4.251-0.25,8.83,2.951,11.948l14.722,14.342l-3.469,20.257    c-0.754,4.404,1.023,8.771,4.639,11.397c2.042,1.483,4.432,2.237,6.838,2.237c1.853,0,3.716-0.447,5.438-1.353l18.189-9.568    l18.191,9.557c3.957,2.081,8.658,1.739,12.271-0.886c3.616-2.625,5.394-6.993,4.639-11.404l-3.479-20.255l14.71-14.347    C511.679,68.282,512.809,63.703,511.427,59.452z M476.668,74.489c-2.754,2.682-4.008,6.545-3.354,10.323l1.359,7.915l-7.11-3.736    c-3.402-1.786-7.461-1.783-10.846,0.003l-7.108,3.739l1.356-7.919c0.646-3.785-0.61-7.642-3.355-10.312l-5.752-5.604l7.949-1.157    c3.794-0.554,7.073-2.937,8.771-6.378l3.552-7.202l3.557,7.202c1.697,3.436,4.977,5.818,8.777,6.373l7.947,1.153L476.668,74.489z" data-original="#000000" class="active-path" data-old_color="#000000" fill="#E28C1B"/>
		<path id="XMLID_1161_" d="M110.649,252.357h-0.891c3.954-6.403,6.242-13.938,6.242-22v-4c0-23.159-18.841-42-42-42    s-42,18.841-42,42v4c0,8.062,2.288,15.597,6.242,22h-0.891C16.756,252.357,0,269.112,0,289.707v27.935c0,5.523,4.478,10,10,10h24    c5.522,0,10-4.477,10-10s-4.478-10-10-10H20v-17.935c0-9.567,7.783-17.35,17.351-17.35h73.299c9.567,0,17.351,7.783,17.351,17.35    v17.935h-14c-5.522,0-10,4.477-10,10s4.478,10,10,10h24c5.522,0,10-4.477,10-10v-27.935    C148,269.112,131.244,252.357,110.649,252.357z M52,230.357v-4c0-12.131,9.869-22,22-22s22,9.869,22,22v4c0,12.131-9.869,22-22,22    S52,242.488,52,230.357z" data-original="#000000" class="active-path" data-old_color="#000000" fill="#E28C1B"/>
		<path id="XMLID_1172_" d="M263.863,235.871l-20.34-2.95l-9.101-18.428v0c-1.979-4.006-5.981-6.495-10.45-6.495    c-0.001,0-0.003,0-0.005,0c-4.47,0.002-8.474,2.494-10.448,6.5l-9.091,18.432l-20.339,2.961c-4.422,0.644-8.025,3.684-9.405,7.934    c-1.38,4.25-0.249,8.828,2.952,11.948l14.722,14.342l-3.47,20.258c-0.754,4.405,1.024,8.772,4.641,11.398    c2.043,1.483,4.432,2.236,6.837,2.236c1.854,0,3.716-0.447,5.438-1.353l18.188-9.569l18.194,9.56    c3.956,2.078,8.66,1.737,12.274-0.892c3.615-2.628,5.39-6.997,4.633-11.4l-3.479-20.255l14.713-14.349    c3.2-3.121,4.329-7.699,2.946-11.949C271.892,239.551,268.285,236.512,263.863,235.871z M238.506,258.847    c-2.741,2.676-3.993,6.529-3.346,10.314l1.359,7.914l-7.109-3.735c-3.394-1.783-7.446-1.784-10.848,0.003l-7.106,3.739    l1.356-7.918c0.646-3.776-0.606-7.629-3.355-10.313l-5.753-5.604l7.95-1.157c3.794-0.554,7.073-2.937,8.771-6.378l3.552-7.203    l3.555,7.198c1.699,3.442,4.981,5.826,8.778,6.376l7.948,1.153L238.506,258.847z" data-original="#000000" class="active-path" data-old_color="#000000" fill="#E28C1B"/>
		<path id="XMLID_1283_" d="M382.939,235.871l-20.34-2.95l-9.101-18.428v0c-1.979-4.006-5.981-6.495-10.45-6.495    c-0.001,0-0.003,0-0.005,0c-4.47,0.002-8.474,2.494-10.448,6.5l-9.091,18.432l-20.337,2.961c-4.422,0.644-8.026,3.684-9.407,7.934    c-1.38,4.25-0.249,8.828,2.952,11.948l14.722,14.342l-3.468,20.251c-0.757,4.406,1.02,8.775,4.636,11.402    c2.043,1.484,4.434,2.239,6.84,2.239c1.853,0,3.716-0.448,5.437-1.353l18.189-9.569l18.194,9.56    c3.956,2.078,8.66,1.737,12.274-0.892c3.615-2.628,5.39-6.997,4.633-11.4l-3.479-20.256l14.712-14.349    c3.2-3.121,4.329-7.699,2.946-11.949C390.968,239.551,387.361,236.512,382.939,235.871z M357.592,258.839    c-2.754,2.682-4.008,6.544-3.354,10.323l1.359,7.915l-7.11-3.736c-3.396-1.784-7.452-1.784-10.846,0.003l-7.108,3.739l1.356-7.919    c0.646-3.782-0.609-7.638-3.355-10.313l-5.753-5.604l7.95-1.157c3.794-0.554,7.073-2.937,8.771-6.378l3.552-7.203l3.555,7.198    c1.699,3.442,4.981,5.826,8.779,6.376l7.948,1.153L357.592,258.839z" data-original="#000000" class="active-path" data-old_color="#000000" fill="#E28C1B"/>
		<path id="XMLID_1286_" d="M110.649,436.715h-0.891c3.954-6.403,6.242-13.938,6.242-22v-4c0-23.159-18.841-42-42-42    s-42,18.841-42,42v4c0,8.062,2.288,15.597,6.242,22h-0.891C16.756,436.715,0,453.47,0,474.065v27.935c0,5.523,4.478,10,10,10h128    c5.522,0,10-4.477,10-10v-27.935C148,453.47,131.244,436.715,110.649,436.715z M52,414.715v-4c0-12.131,9.869-22,22-22    s22,9.869,22,22v4c0,12.131-9.869,22-22,22S52,426.846,52,414.715z M128,491.999H20v-17.935c0-9.567,7.783-17.35,17.351-17.35    h73.299c9.567,0,17.351,7.783,17.351,17.35V491.999z" data-original="#000000" class="active-path" data-old_color="#000000" fill="#E28C1B"/>
		<path id="XMLID_1291_" d="M263.863,420.228l-20.34-2.95l-9.101-18.427c-1.979-4.006-5.981-6.495-10.45-6.495    c-0.001,0-0.003,0-0.005,0c-4.47,0.002-8.474,2.494-10.448,6.5l-9.091,18.432l-20.339,2.961c-4.422,0.644-8.025,3.684-9.405,7.934    c-1.38,4.25-0.249,8.828,2.952,11.948l14.722,14.342l-3.47,20.258c-0.754,4.405,1.024,8.772,4.641,11.398    c2.042,1.483,4.432,2.237,6.837,2.236c1.854,0,3.716-0.447,5.438-1.353l18.188-9.569l18.194,9.56    c3.956,2.077,8.66,1.738,12.274-0.892c3.615-2.628,5.39-6.997,4.633-11.4l-3.479-20.255l14.713-14.349    c3.199-3.12,4.328-7.698,2.947-11.947C271.894,423.91,268.288,420.871,263.863,420.228z M238.506,443.205    c-2.741,2.676-3.993,6.529-3.346,10.314l1.359,7.915l-7.109-3.735c-3.395-1.783-7.447-1.782-10.848,0.003l-7.106,3.739    l1.356-7.918c0.646-3.779-0.607-7.633-3.355-10.312l-5.753-5.604l7.941-1.156c3.798-0.55,7.08-2.934,8.78-6.379l3.552-7.203    l3.557,7.202c1.699,3.44,4.98,5.822,8.776,6.372l7.948,1.153L238.506,443.205z" data-original="#000000" class="active-path" data-old_color="#000000" fill="#E28C1B"/>
		<path id="XMLID_1292_" d="M81.069,324.713c1.86-1.86,2.931-4.44,2.931-7.07c0-2.63-1.07-5.21-2.931-7.07    c-1.859-1.86-4.439-2.93-7.069-2.93s-5.21,1.07-7.07,2.93s-2.93,4.44-2.93,7.07c0,2.63,1.069,5.21,2.93,7.07    c1.86,1.86,4.44,2.93,7.07,2.93S79.21,326.573,81.069,324.713z" data-original="#000000" class="active-path" data-old_color="#000000" fill="#E28C1B"/>
	</g>
</g></g> </svg>
