<svg xmlns="http://www.w3.org/2000/svg" width="512.007" height="511.993" viewBox="0 0 512.007 511.993">
  <g id="evaluate" transform="translate(0 -0.007)">
    <g id="XMLID_1239_">
      <g id="XMLID_392_">
        <path id="XMLID_395_" d="M110.649,68.007h-.891a41.739,41.739,0,0,0,6.242-22v-4a42,42,0,0,0-84,0v4a41.739,41.739,0,0,0,6.242,22h-.891A37.393,37.393,0,0,0,0,105.357v27.935a10,10,0,0,0,10,10H138a10,10,0,0,0,10-10V105.357A37.393,37.393,0,0,0,110.649,68.007ZM52,46.007v-4a22,22,0,0,1,44,0v4a22,22,0,1,1-44,0Zm76,77.285H20V105.357a17.37,17.37,0,0,1,17.351-17.35h73.3A17.37,17.37,0,0,1,128,105.357v17.935Z" fill="#008ef4"/>
        <path id="XMLID_399_" d="M263.863,51.521l-20.34-2.95-9.1-18.428a11.583,11.583,0,0,0-10.45-6.5h0a11.579,11.579,0,0,0-10.449,6.5l-9.091,18.433-20.336,2.96a11.655,11.655,0,0,0-6.456,19.882l14.722,14.342-3.47,20.258A11.64,11.64,0,0,0,205.8,118.3l18.189-9.568,18.194,9.559A11.655,11.655,0,0,0,259.093,106l-3.479-20.255L270.325,71.4a11.654,11.654,0,0,0-6.462-19.879ZM238.506,74.5a11.661,11.661,0,0,0-3.346,10.314l1.359,7.915-7.109-3.735a11.658,11.658,0,0,0-10.847,0l-7.107,3.739,1.356-7.919A11.656,11.656,0,0,0,209.457,74.5L203.7,68.9l7.95-1.157a11.657,11.657,0,0,0,8.771-6.378l3.552-7.2,3.557,7.2a11.66,11.66,0,0,0,8.776,6.373l7.948,1.153Z" fill="#008ef4"/>
        <path id="XMLID_402_" d="M382.939,51.521l-20.34-2.95-9.1-18.428a11.583,11.583,0,0,0-10.45-6.5h0a11.579,11.579,0,0,0-10.449,6.5L323.5,48.581l-20.334,2.96a11.655,11.655,0,0,0-6.458,19.882l14.722,14.342-3.468,20.25A11.64,11.64,0,0,0,324.879,118.3l18.189-9.568,18.194,9.559A11.655,11.655,0,0,0,378.169,106L374.69,85.748,389.4,71.4a11.655,11.655,0,0,0-6.461-19.88ZM357.592,74.489a11.641,11.641,0,0,0-3.354,10.323l1.359,7.916-7.11-3.736a11.647,11.647,0,0,0-10.846,0l-7.108,3.739,1.356-7.919A11.65,11.65,0,0,0,328.534,74.5l-5.752-5.6,7.949-1.157a11.657,11.657,0,0,0,8.771-6.378l3.552-7.2,3.557,7.2a11.663,11.663,0,0,0,8.777,6.373l7.947,1.153Z" fill="#008ef4"/>
        <path id="XMLID_1138_" d="M511.427,59.452a11.583,11.583,0,0,0-9.411-7.931l-20.34-2.95-9.1-18.428a11.655,11.655,0,0,0-20.9,0l-9.091,18.433-20.335,2.96a11.656,11.656,0,0,0-6.457,19.882l14.722,14.342-3.469,20.257A11.64,11.64,0,0,0,443.957,118.3l18.189-9.568,18.191,9.557A11.656,11.656,0,0,0,497.247,106l-3.479-20.255L508.478,71.4A11.579,11.579,0,0,0,511.427,59.452ZM476.668,74.489a11.641,11.641,0,0,0-3.354,10.323l1.359,7.915-7.11-3.736a11.647,11.647,0,0,0-10.846,0l-7.108,3.739,1.356-7.919A11.65,11.65,0,0,0,447.61,74.5l-5.752-5.6,7.949-1.157a11.657,11.657,0,0,0,8.771-6.378l3.552-7.2,3.557,7.2a11.663,11.663,0,0,0,8.777,6.373l7.947,1.153Z" fill="#008ef4"/>
        <path id="XMLID_1161_" d="M110.649,252.357h-.891a41.739,41.739,0,0,0,6.242-22v-4a42,42,0,0,0-84,0v4a41.739,41.739,0,0,0,6.242,22h-.891A37.393,37.393,0,0,0,0,289.707v27.935a10,10,0,0,0,10,10H34a10,10,0,0,0,0-20H20V289.707a17.37,17.37,0,0,1,17.351-17.35h73.3A17.37,17.37,0,0,1,128,289.707v17.935H114a10,10,0,0,0,0,20h24a10,10,0,0,0,10-10V289.707A37.394,37.394,0,0,0,110.649,252.357ZM52,230.357v-4a22,22,0,0,1,44,0v4a22,22,0,0,1-44,0Z" fill="#008ef4"/>
        <path id="XMLID_1172_" d="M263.863,235.871l-20.34-2.95-9.1-18.428h0A11.583,11.583,0,0,0,223.972,208h-.005a11.581,11.581,0,0,0-10.448,6.5l-9.091,18.432-20.339,2.961a11.656,11.656,0,0,0-6.453,19.882l14.722,14.342-3.47,20.258A11.641,11.641,0,0,0,205.8,302.654l18.188-9.569,18.194,9.56a11.656,11.656,0,0,0,16.907-12.292L255.614,270.1l14.713-14.349a11.655,11.655,0,0,0-6.464-19.878Zm-25.357,22.976a11.662,11.662,0,0,0-3.346,10.314l1.359,7.914-7.109-3.735a11.657,11.657,0,0,0-10.848,0l-7.106,3.739,1.356-7.918a11.662,11.662,0,0,0-3.355-10.313l-5.753-5.6,7.95-1.157a11.657,11.657,0,0,0,8.771-6.378l3.552-7.2,3.555,7.2a11.652,11.652,0,0,0,8.778,6.376l7.948,1.153Z" fill="#008ef4"/>
        <path id="XMLID_1283_" d="M382.939,235.871l-20.34-2.95-9.1-18.428h0A11.583,11.583,0,0,0,343.048,208h-.005a11.581,11.581,0,0,0-10.448,6.5L323.5,232.93l-20.337,2.961a11.655,11.655,0,0,0-6.455,19.882l14.722,14.342-3.468,20.251a11.64,11.64,0,0,0,16.913,12.288l18.189-9.569,18.194,9.56a11.656,11.656,0,0,0,16.907-12.292L374.69,270.1,389.4,255.748a11.654,11.654,0,0,0-6.463-19.877Zm-25.347,22.968a11.64,11.64,0,0,0-3.354,10.323l1.359,7.915-7.11-3.736a11.65,11.65,0,0,0-10.846,0l-7.108,3.739,1.356-7.919a11.657,11.657,0,0,0-3.355-10.313l-5.753-5.6,7.95-1.157a11.657,11.657,0,0,0,8.771-6.378l3.552-7.2,3.555,7.2a11.651,11.651,0,0,0,8.779,6.376l7.948,1.153Z" fill="#008ef4"/>
        <path id="XMLID_1286_" d="M110.649,436.715h-.891a41.739,41.739,0,0,0,6.242-22v-4a42,42,0,0,0-84,0v4a41.739,41.739,0,0,0,6.242,22h-.891A37.393,37.393,0,0,0,0,474.065V502a10,10,0,0,0,10,10H138a10,10,0,0,0,10-10V474.065A37.393,37.393,0,0,0,110.649,436.715ZM52,414.715v-4a22,22,0,0,1,44,0v4a22,22,0,0,1-44,0ZM128,492H20V474.064a17.37,17.37,0,0,1,17.351-17.35h73.3A17.37,17.37,0,0,1,128,474.064V492Z" fill="#008ef4"/>
        <path id="XMLID_1291_" d="M263.863,420.228l-20.34-2.95-9.1-18.427a11.583,11.583,0,0,0-10.45-6.495h-.005a11.581,11.581,0,0,0-10.448,6.5l-9.091,18.432-20.339,2.961a11.656,11.656,0,0,0-6.453,19.882l14.722,14.342-3.47,20.258A11.641,11.641,0,0,0,205.8,487.012l18.188-9.569L242.186,487a11.656,11.656,0,0,0,16.907-12.292l-3.479-20.255,14.713-14.349a11.655,11.655,0,0,0-6.464-19.879ZM238.506,443.2a11.662,11.662,0,0,0-3.346,10.314l1.359,7.915L229.41,457.7a11.663,11.663,0,0,0-10.848,0l-7.106,3.739,1.356-7.918a11.656,11.656,0,0,0-3.355-10.312l-5.753-5.6,7.941-1.156a11.651,11.651,0,0,0,8.78-6.379l3.552-7.2,3.557,7.2a11.65,11.65,0,0,0,8.776,6.372l7.948,1.153Z" fill="#008ef4"/>
        <path id="XMLID_1292_" d="M81.069,324.713A9.994,9.994,0,1,0,74,327.643,10.077,10.077,0,0,0,81.069,324.713Z" fill="#008ef4"/>
      </g>
    </g>
  </g>
</svg>
