<svg id="Grupo_2" data-name="Grupo 2" xmlns="http://www.w3.org/2000/svg" width="294.842" height="294.842" viewBox="0 0 294.842 294.842">
  <path id="Caminho_3" data-name="Caminho 3" d="M288.842,0H6A6,6,0,0,0,0,6V288.842a6,6,0,0,0,6,6H246.421a6,6,0,1,0,0-12H12V12H282.842V288.842a6,6,0,0,0,12,0V6A6,6,0,0,0,288.842,0Z" fill="#008ef4"/>
  <path id="Caminho_4" data-name="Caminho 4" d="M65.815,62.421a23,23,0,1,0,23,23,23,23,0,0,0-23-23Zm0,34a11,11,0,1,1,11-11,11,11,0,0,1-11,11Z" fill="#008ef4"/>
  <path id="Caminho_5" data-name="Caminho 5" d="M246.815,79.421h-140a6,6,0,0,0,0,12h140a6,6,0,1,0,0-12Z" fill="#008ef4"/>
  <path id="Caminho_6" data-name="Caminho 6" d="M65.815,124.421a6,6,0,1,0,0,12,11,11,0,1,1-11,11,6,6,0,0,0-12,0,23,23,0,1,0,23-23Z" fill="#008ef4"/>
  <path id="Caminho_7" data-name="Caminho 7" d="M246.815,141.421h-140a6,6,0,0,0,0,12h140a6,6,0,0,0,0-12Z" fill="#008ef4"/>
  <path id="Caminho_8" data-name="Caminho 8" d="M65.815,186.421a23,23,0,1,0,23,23,23,23,0,0,0-23-23Zm0,34a11,11,0,1,1,11-11,11,11,0,0,1-11,11Z" fill="#008ef4"/>
  <path id="Caminho_9" data-name="Caminho 9" d="M246.815,203.421h-140a6,6,0,0,0,0,12h140a6,6,0,1,0,0-12Z" fill="#008ef4"/>
</svg>
