<svg xmlns="http://www.w3.org/2000/svg" width="486.025" height="445.8" viewBox="0 0 486.025 445.8">
  <g id="padlock" transform="translate(0 -20.113)">
    <g id="Grupo_24" data-name="Grupo 24">
      <g id="Grupo_23" data-name="Grupo 23">
        <path id="Caminho_21" data-name="Caminho 21" d="M420.725,85.413a222.863,222.863,0,0,0-317.2,2,12.022,12.022,0,1,0,17.2,16.8,197.413,197.413,0,0,1,142.4-60c109.7-.1,198.9,89.1,198.9,198.8s-89.2,198.9-198.9,198.9-198.9-89.2-198.9-198.9v-2.5l19.8,19.8a12.039,12.039,0,0,0,8.5,3.5,12.214,12.214,0,0,0,8.5-3.5,12.011,12.011,0,0,0,0-17l-40.2-40.3a12.011,12.011,0,0,0-17,0l-40.3,40.3a12,12,0,0,0,8.5,20.5,12.214,12.214,0,0,0,8.5-3.5l19.8-19.8v2.5a222.88,222.88,0,0,0,380.5,157.6,222.953,222.953,0,0,0-.1-315.2Z" fill="#e28c1b"/>
        <path id="Caminho_22" data-name="Caminho 22" d="M263.125,113.413a70.76,70.76,0,0,0-70.7,70.7v34.1h-22a12.035,12.035,0,0,0-12,12v119.7a12.035,12.035,0,0,0,12,12h185.5a12.035,12.035,0,0,0,12-12v-119.6a12.035,12.035,0,0,0-12-12h-22v-34.1A70.931,70.931,0,0,0,263.125,113.413Zm-46.7,70.8a46.7,46.7,0,0,1,93.4,0v34.1h-93.4v-34.1Zm127.5,153.7h-161.5v-95.7h161.5Z" fill="#e28c1b"/>
      </g>
    </g>
  </g>
</svg>
