<svg xmlns="http://www.w3.org/2000/svg" width="511.986" height="512" viewBox="0 0 511.986 512">
  <g id="profile" transform="translate(-0.007)">
    <g id="Grupo_4" data-name="Grupo 4">
      <g id="Grupo_3" data-name="Grupo 3">
        <path id="Caminho_10" data-name="Caminho 10" d="M414.007,148.75a10,10,0,0,0,10-10V30a30.034,30.034,0,0,0-30-30h-364a30.034,30.034,0,0,0-30,30V482a30.034,30.034,0,0,0,30,30h364a30.034,30.034,0,0,0,30-30V408.328a10,10,0,0,0-20,0V482a10.011,10.011,0,0,1-10,10h-364a10.011,10.011,0,0,1-10-10V30a10.011,10.011,0,0,1,10-10h364a10.011,10.011,0,0,1,10,10V138.75A10,10,0,0,0,414.007,148.75Z" fill="#e28c1b"/>
      </g>
    </g>
    <g id="Grupo_6" data-name="Grupo 6">
      <g id="Grupo_5" data-name="Grupo 5">
        <path id="Caminho_11" data-name="Caminho 11" d="M212.007,54a91.955,91.955,0,0,0-63.118,158.869,9.892,9.892,0,0,0,1.074,1,91.827,91.827,0,0,0,124.086,0,10,10,0,0,0,1.074-1A91.954,91.954,0,0,0,212.007,54Zm0,164a71.615,71.615,0,0,1-43.491-14.668,50,50,0,0,1,86.982,0A71.617,71.617,0,0,1,212.007,218Zm-16-76v-6.5a16,16,0,0,1,32,0V142a16,16,0,0,1-32,0Zm73.94,46.683a69.375,69.375,0,0,0-29.463-24.7A35.811,35.811,0,0,0,248.007,142v-6.5a36,36,0,0,0-72,0V142a35.811,35.811,0,0,0,7.523,21.986,69.375,69.375,0,0,0-29.463,24.7,72,72,0,1,1,115.88,0Z" fill="#e28c1b"/>
      </g>
    </g>
    <g id="Grupo_8" data-name="Grupo 8">
      <g id="Grupo_7" data-name="Grupo 7">
        <path id="Caminho_12" data-name="Caminho 12" d="M266.007,438h-54a10,10,0,0,0,0,20h54a10,10,0,0,0,0-20Z" fill="#e28c1b"/>
      </g>
    </g>
    <g id="Grupo_10" data-name="Grupo 10">
      <g id="Grupo_9" data-name="Grupo 9">
        <path id="Caminho_13" data-name="Caminho 13" d="M266.007,382h-142a10,10,0,0,0,0,20h142a10,10,0,0,0,0-20Z" fill="#e28c1b"/>
      </g>
    </g>
    <g id="Grupo_12" data-name="Grupo 12">
      <g id="Grupo_11" data-name="Grupo 11">
        <path id="Caminho_14" data-name="Caminho 14" d="M266.007,326h-142a10,10,0,0,0,0,20h142a10,10,0,0,0,0-20Z" fill="#e28c1b"/>
      </g>
    </g>
    <g id="Grupo_14" data-name="Grupo 14">
      <g id="Grupo_13" data-name="Grupo 13">
        <path id="Caminho_15" data-name="Caminho 15" d="M88.366,272.93A9.992,9.992,0,1,0,91.3,280,10.077,10.077,0,0,0,88.366,272.93Z" fill="#e28c1b"/>
      </g>
    </g>
    <g id="Grupo_16" data-name="Grupo 16">
      <g id="Grupo_15" data-name="Grupo 15">
        <path id="Caminho_16" data-name="Caminho 16" d="M88.366,328.93A9.992,9.992,0,1,0,91.3,336,10.1,10.1,0,0,0,88.366,328.93Z" fill="#e28c1b"/>
      </g>
    </g>
    <g id="Grupo_18" data-name="Grupo 18">
      <g id="Grupo_17" data-name="Grupo 17">
        <path id="Caminho_17" data-name="Caminho 17" d="M88.366,384.93A9.992,9.992,0,1,0,91.3,392,10.1,10.1,0,0,0,88.366,384.93Z" fill="#e28c1b"/>
      </g>
    </g>
    <g id="Grupo_20" data-name="Grupo 20">
      <g id="Grupo_19" data-name="Grupo 19">
        <path id="Caminho_18" data-name="Caminho 18" d="M266.007,270h-142a10,10,0,0,0,0,20h142a10,10,0,0,0,0-20Z" fill="#e28c1b"/>
      </g>
    </g>
    <g id="Grupo_22" data-name="Grupo 22">
      <g id="Grupo_21" data-name="Grupo 21">
        <path id="Caminho_19" data-name="Caminho 19" d="M491,130.32a42,42,0,0,0-57.373,15.373L307.787,363.656a10.017,10.017,0,0,0-1.278,3.891l-8.858,79.344a10,10,0,0,0,15.868,9.162L377.8,408.709a9.984,9.984,0,0,0,2.73-3.052L506.374,187.694A42.048,42.048,0,0,0,491,130.32ZM320.063,426.394l4.626-41.432,28.942,16.71Zm48.15-39.4-38.105-22,100.985-174.91,38.105,22Zm120.841-209.3L479.2,194.766l-38.105-22,9.857-17.073a22,22,0,0,1,38.105,22Z" fill="#e28c1b"/>
      </g>
    </g>
  </g>
</svg>
